<svg id="visual" viewBox="0 0 900 450" width="900" height="450" xmlns="http://www.w3.org/2000/svg" xmlns:xlink="http://www.w3.org/1999/xlink" version="1.1"><rect x="0" y="0" width="900" height="450" fill="#eaf8ff"></rect><path d="M0 259L37.5 253.5C75 248 150 237 225 218.8C300 200.7 375 175.3 450 187C525 198.7 600 247.3 675 257.8C750 268.3 825 240.7 862.5 226.8L900 213L900 451L862.5 451C825 451 750 451 675 451C600 451 525 451 450 451C375 451 300 451 225 451C150 451 75 451 37.5 451L0 451Z" fill="#0066FF" stroke-linecap="round" stroke-linejoin="miter"></path></svg>