<svg id="visual" viewBox="0 0 900 450" width="900" height="450" xmlns="http://www.w3.org/2000/svg" xmlns:xlink="http://www.w3.org/1999/xlink" version="1.1"><rect x="0" y="0" width="900" height="450" fill="lightblue"></rect><path d="M0 130L21.5 130.2C43 130.3 86 130.7 128.8 130.3C171.7 130 214.3 129 257.2 136.7C300 144.3 343 160.7 385.8 166.5C428.7 172.3 471.3 167.7 514.2 167.7C557 167.7 600 172.3 642.8 169.2C685.7 166 728.3 155 771.2 155C814 155 857 166 878.5 171.5L900 177L900 0L878.5 0C857 0 814 0 771.2 0C728.3 0 685.7 0 642.8 0C600 0 557 0 514.2 0C471.3 0 428.7 0 385.8 0C343 0 300 0 257.2 0C214.3 0 171.7 0 128.8 0C86 0 43 0 21.5 0L0 0Z" fill="#215170"></path><path d="M0 131L21.5 127.8C43 124.7 86 118.3 128.8 120.7C171.7 123 214.3 134 257.2 136.5C300 139 343 133 385.8 131.5C428.7 130 471.3 133 514.2 130.3C557 127.7 600 119.3 642.8 117.3C685.7 115.3 728.3 119.7 771.2 126.5C814 133.3 857 142.7 878.5 147.3L900 152L900 0L878.5 0C857 0 814 0 771.2 0C728.3 0 685.7 0 642.8 0C600 0 557 0 514.2 0C471.3 0 428.7 0 385.8 0C343 0 300 0 257.2 0C214.3 0 171.7 0 128.8 0C86 0 43 0 21.5 0L0 0Z" fill="#166392"></path><path d="M0 75L21.5 76.7C43 78.3 86 81.7 128.8 84.3C171.7 87 214.3 89 257.2 88.3C300 87.7 343 84.3 385.8 80.5C428.7 76.7 471.3 72.3 514.2 72.8C557 73.3 600 78.7 642.8 84.5C685.7 90.3 728.3 96.7 771.2 101.7C814 106.7 857 110.3 878.5 112.2L900 114L900 0L878.5 0C857 0 814 0 771.2 0C728.3 0 685.7 0 642.8 0C600 0 557 0 514.2 0C471.3 0 428.7 0 385.8 0C343 0 300 0 257.2 0C214.3 0 171.7 0 128.8 0C86 0 43 0 21.5 0L0 0Z" fill="#0075b5"></path><path d="M0 64L21.5 61.3C43 58.7 86 53.3 128.8 56.2C171.7 59 214.3 70 257.2 71.5C300 73 343 65 385.8 64C428.7 63 471.3 69 514.2 73.7C557 78.3 600 81.7 642.8 77.2C685.7 72.7 728.3 60.3 771.2 58.7C814 57 857 66 878.5 70.5L900 75L900 0L878.5 0C857 0 814 0 771.2 0C728.3 0 685.7 0 642.8 0C600 0 557 0 514.2 0C471.3 0 428.7 0 385.8 0C343 0 300 0 257.2 0C214.3 0 171.7 0 128.8 0C86 0 43 0 21.5 0L0 0Z" fill="#0087da"></path><path d="M0 33L21.5 33C43 33 86 33 128.8 31.8C171.7 30.7 214.3 28.3 257.2 31.5C300 34.7 343 43.3 385.8 45.2C428.7 47 471.3 42 514.2 37.5C557 33 600 29 642.8 29C685.7 29 728.3 33 771.2 32C814 31 857 25 878.5 22L900 19L900 0L878.5 0C857 0 814 0 771.2 0C728.3 0 685.7 0 642.8 0C600 0 557 0 514.2 0C471.3 0 428.7 0 385.8 0C343 0 300 0 257.2 0C214.3 0 171.7 0 128.8 0C86 0 43 0 21.5 0L0 0Z" fill="#0099ff"></path></svg>