<svg id="visual" viewBox="0 0 900 600" width="900" height="600" xmlns="http://www.w3.org/2000/svg" xmlns:xlink="http://www.w3.org/1999/xlink" version="1.1"><rect x="0" y="0" width="900" height="600" fill="#002233"></rect><path d="M0 363L37.5 357.2C75 351.3 150 339.7 225 353.5C300 367.3 375 406.7 450 378C525 349.3 600 252.7 675 218.2C750 183.7 825 211.3 862.5 225.2L900 239L900 601L862.5 601C825 601 750 601 675 601C600 601 525 601 450 601C375 601 300 601 225 601C150 601 75 601 37.5 601L0 601Z" fill="#0066FF" stroke-linecap="round" stroke-linejoin="miter"></path></svg>